<?xml version="1.0" standalone="no"?>
<!DOCTYPE svg PUBLIC "-//W3C//DTD SVG 20010904//EN"
 "http://www.w3.org/TR/2001/REC-SVG-20010904/DTD/svg10.dtd">
<svg version="1.0" xmlns="http://www.w3.org/2000/svg"
 width="6000.000000pt" height="6000.000000pt" viewBox="0 0 6000.000000 6000.000000"
 preserveAspectRatio="xMidYMid meet">

<g transform="translate(0.000000,6000.000000) scale(0.100000,-0.100000)"
fill="#000000" stroke="none">
<path d="M0 30000 l0 -30000 30000 0 30000 0 0 30000 0 30000 -30000 0 -30000
0 0 -30000z m30915 23130 c2822 -114 5521 -715 8095 -1803 3063 -1294 5797
-3227 8066 -5702 3369 -3674 5458 -8332 5953 -13275 83 -826 114 -1469 114
-2350 0 -600 -8 -891 -38 -1410 -250 -4222 -1662 -8297 -4083 -11785 -1258
-1812 -2821 -3485 -4562 -4881 -3472 -2785 -7689 -4510 -12110 -4953 -826 -83
-1470 -114 -2350 -114 -742 0 -1233 19 -1910 73 -4845 393 -9451 2317 -13153
5494 -879 755 -1758 1634 -2513 2513 -3079 3588 -4983 8026 -5453 12713 -83
826 -114 1470 -114 2350 0 880 31 1524 114 2350 470 4687 2374 9125 5453
12713 755 879 1634 1758 2513 2513 3588 3079 8025 4983 12713 5453 613 62
1228 99 1900 115 228 5 1100 -4 1365 -14z"/>
<path d="M29255 53099 c-2879 -91 -5728 -724 -8350 -1854 -796 -343 -1624
-756 -2360 -1178 -1580 -905 -3057 -2002 -4395 -3262 -244 -231 -825 -813
-1041 -1045 -1222 -1312 -2295 -2766 -3176 -4305 -422 -736 -835 -1564 -1178
-2360 -989 -2295 -1600 -4773 -1794 -7280 -277 -3567 262 -7115 1581 -10400
385 -957 876 -1972 1391 -2870 906 -1582 2009 -3067 3267 -4400 237 -250 809
-820 1040 -1036 1312 -1222 2766 -2295 4305 -3176 736 -422 1564 -835 2360
-1178 2295 -989 4773 -1600 7280 -1794 3566 -277 7116 263 10400 1581 957 385
1972 876 2870 1391 1539 881 2993 1954 4305 3176 231 216 803 786 1040 1036
1258 1333 2361 2818 3267 4400 422 736 835 1564 1178 2360 989 2295 1600 4773
1794 7280 277 3566 -263 7116 -1581 10400 -385 957 -876 1972 -1391 2870 -881
1539 -1954 2993 -3176 4305 -216 231 -786 803 -1036 1040 -1333 1258 -2818
2361 -4400 3267 -736 422 -1564 835 -2360 1178 -2875 1239 -5995 1874 -9155
1863 -245 0 -553 -5 -685 -9z m1545 -1830 c3381 -118 6685 -1051 9660 -2727
3306 -1863 6117 -4653 8005 -7947 144 -251 335 -599 335 -610 0 -3 -19 -5 -42
-3 l-43 3 -53 100 c-201 374 -538 947 -777 1320 -1259 1970 -2853 3736 -4700
5208 -2858 2278 -6321 3795 -9925 4346 -1109 170 -2103 244 -3260 244 -988 0
-1781 -49 -2720 -168 -4149 -528 -8080 -2299 -11229 -5060 -1260 -1104 -2362
-2319 -3330 -3673 -478 -668 -1028 -1550 -1367 -2189 l-49 -93 -42 0 c-24 0
-43 2 -43 5 0 3 61 115 135 250 1108 2010 2539 3829 4250 5403 2234 2055 4864
3598 7755 4550 1168 385 2375 667 3595 841 1277 182 2516 247 3845 200z m90
-449 c2248 -103 4321 -521 6374 -1285 2542 -945 4804 -2333 6846 -4199 239
-219 1007 -987 1226 -1226 1133 -1239 2066 -2526 2853 -3934 61 -109 111 -200
111 -202 0 -2 -85 -4 -189 -4 l-188 0 -83 148 c-443 786 -1016 1647 -1595
2396 -578 748 -1144 1386 -1841 2076 -1419 1403 -2968 2547 -4734 3498 -246
132 -934 472 -1188 586 -2225 1004 -4495 1587 -6892 1770 -539 42 -944 56
-1590 56 -795 0 -1309 -24 -2040 -95 -2066 -202 -4104 -724 -6015 -1543 -704
-301 -1495 -696 -2145 -1069 -2081 -1196 -3925 -2739 -5501 -4603 -777 -920
-1542 -2017 -2125 -3047 l-69 -123 -187 0 c-104 0 -188 3 -188 6 0 17 326 583
491 851 715 1163 1497 2197 2443 3233 219 239 987 1007 1226 1226 2442 2232
5221 3793 8370 4701 1685 485 3395 744 5270 797 210 6 1131 -4 1360 -14z
m-390 -710 c3016 -80 5830 -781 8500 -2117 1694 -847 3191 -1881 4625 -3193
245 -224 951 -930 1175 -1175 995 -1087 1818 -2195 2543 -3425 60 -102 113
-193 118 -202 9 -16 5 -18 -34 -18 l-44 0 -98 168 c-1225 2092 -2878 3995
-4809 5536 -2560 2044 -5608 3433 -8833 4025 -1341 247 -2761 358 -4110 323
-605 -16 -955 -37 -1493 -88 -3639 -346 -7169 -1722 -10100 -3937 -2096 -1584
-3868 -3567 -5199 -5814 l-102 -173 -44 0 -44 0 101 173 c612 1045 1377 2102
2203 3047 309 353 514 570 924 981 411 410 626 613 983 925 2178 1909 4739
3320 7528 4149 1985 590 4123 870 6210 815z m-357 -1050 c163 -51 302 -207
323 -363 4 -27 12 -50 18 -52 6 -2 133 -9 281 -15 2138 -85 4180 -518 6135
-1300 264 -105 638 -266 859 -368 l174 -81 43 45 c66 67 131 94 229 94 67 0
90 -5 140 -28 68 -33 127 -93 158 -161 16 -34 21 -66 21 -126 0 -102 -27 -166
-95 -230 -70 -65 -127 -88 -219 -89 -124 -1 -226 59 -286 166 -27 49 -29 61
-29 155 l0 103 -155 71 c-2045 943 -4288 1509 -6535 1649 -238 14 -577 30
-660 30 l-71 0 -12 -58 c-38 -185 -194 -331 -389 -364 -242 -40 -486 125 -535
364 l-12 58 -71 0 c-83 0 -422 -16 -660 -30 -2249 -141 -4489 -705 -6535
-1649 l-155 -71 0 -103 c0 -94 -2 -106 -29 -155 -60 -107 -162 -167 -286 -166
-92 1 -149 24 -219 89 -68 64 -95 128 -95 230 0 60 5 92 21 127 32 69 94 131
164 163 56 25 70 27 148 23 101 -5 151 -27 216 -93 l42 -44 174 81 c221 102
595 263 859 368 1955 782 3998 1215 6135 1300 149 6 275 13 281 15 6 2 14 25
18 52 14 104 96 233 190 298 121 83 280 108 419 65z m612 -2060 c1594 -71
3121 -353 4617 -850 3114 -1036 5847 -2941 7910 -5513 167 -209 466 -601 492
-644 5 -9 -1 -13 -21 -13 -25 0 -42 18 -138 147 -708 950 -1554 1864 -2451
2649 -2596 2272 -5840 3710 -9224 4088 -707 79 -1196 106 -1940 106 -501 0
-767 -8 -1165 -35 -3699 -252 -7190 -1704 -10000 -4160 -570 -498 -1178 -1109
-1678 -1688 -251 -289 -560 -674 -772 -960 -68 -91 -83 -107 -107 -107 -15 0
-28 2 -28 5 0 10 297 398 475 620 2057 2564 4793 4470 7903 5505 1622 539
3259 821 5027 864 204 5 858 -4 1100 -14z m-10997 -1324 c76 -39 133 -134 132
-220 -2 -81 -58 -167 -134 -202 -160 -75 -336 33 -336 206 0 145 107 245 251
236 31 -2 70 -11 87 -20z m20699 -24 c79 -41 123 -116 123 -209 -1 -180 -179
-287 -341 -205 -140 70 -170 259 -59 370 23 22 60 48 83 56 54 20 141 15 194
-12z m-9772 -383 c3072 -129 6056 -1201 8520 -3063 556 -420 1037 -840 1570
-1368 l320 -318 -150 5 c-318 12 -6728 16 -6815 5 -232 -30 -472 -130 -662
-277 -82 -63 -69 -65 -193 27 -145 108 -343 193 -550 236 -86 18 -167 19
-1990 19 -2006 0 -1986 0 -2220 -46 -121 -24 -299 -78 -390 -119 l-66 -30 -62
31 c-146 74 -373 137 -569 158 -64 7 -624 11 -1636 11 l-1540 0 -6 -72 c-3
-40 -15 -271 -27 -513 -12 -242 -23 -442 -25 -444 -2 -2 -52 15 -111 39 -181
72 -346 111 -533 125 -79 6 -640 0 -2510 -25 -1512 -21 -1671 -26 -1808 -50
-68 -12 -126 -19 -129 -16 -3 3 9 211 26 463 17 252 31 470 31 486 l0 27 -107
0 -108 0 205 206 c747 749 1520 1387 2366 1952 2084 1391 4475 2248 6954 2492
736 72 1450 91 2215 59z m-13087 -1339 c47 -29 72 -76 72 -135 0 -59 -25 -106
-72 -136 -26 -16 -46 -19 -96 -17 -56 4 -66 8 -98 39 -103 104 -35 269 111
269 32 0 62 -7 83 -20z m24980 -42 c44 -27 66 -72 66 -135 1 -116 -121 -188
-230 -137 -94 45 -113 187 -36 257 53 48 136 54 200 15z m-28564 -4314 c110
-55 192 -133 367 -351 l101 -124 50 88 c113 198 216 311 337 371 l75 37 1599
3 1599 2 -6 -72 c-3 -40 -33 -473 -66 -963 -34 -489 -64 -892 -68 -896 -4 -3
-324 -18 -712 -33 -915 -35 -1817 -73 -1904 -81 -114 -9 -195 -56 -237 -136
-39 -78 -70 -242 -85 -451 -5 -80 -4 -98 7 -98 8 0 79 5 159 10 191 13 1241
73 1840 105 261 14 493 23 515 19 217 -35 337 -224 337 -529 0 -60 -46 -776
-102 -1590 -108 -1577 -108 -1584 -74 -1835 30 -224 109 -432 193 -514 l40
-39 -39 -28 c-124 -90 -243 -343 -304 -651 -31 -150 -40 -238 -71 -673 -19
-274 -29 -359 -49 -439 -46 -177 -127 -321 -234 -410 -96 -79 -130 -89 -709
-206 -765 -154 -1574 -329 -2096 -454 -82 -20 -167 -36 -190 -36 -55 0 -117
32 -167 86 -49 54 -119 197 -149 305 -25 91 -51 262 -51 343 0 33 -2 57 -4 55
-2 -2 -16 -75 -30 -161 -77 -455 -210 -723 -409 -824 -26 -14 -222 -72 -435
-129 -660 -176 -1147 -314 -1722 -487 -372 -112 -412 -118 -493 -79 -58 28
-103 79 -137 156 -60 133 -62 152 -70 640 -8 487 -16 577 -69 790 -48 187
-129 349 -208 414 l-35 29 53 54 c117 117 203 349 250 673 7 51 14 364 19 870
7 769 12 881 45 1123 43 310 143 606 269 802 26 40 45 75 42 78 -3 3 -140 -14
-303 -37 -164 -23 -306 -41 -315 -41 -17 0 -18 61 -18 1139 l0 1139 63 6 c169
17 2200 166 2897 213 l115 8 3 150 c6 298 -47 453 -175 512 l-55 25 -601 -32
c-331 -17 -901 -49 -1267 -69 -366 -21 -668 -35 -672 -32 -5 4 -5 519 -1 1144
l6 1137 1650 0 1649 0 52 -26z m13286 6 c206 -19 310 -61 403 -159 76 -81 184
-219 222 -284 25 -43 29 -46 44 -33 61 54 353 282 413 322 89 59 215 108 334
129 186 32 422 36 2129 33 l1690 -3 67 -23 c111 -38 216 -129 271 -237 33 -67
58 -166 68 -275 5 -63 48 -1168 95 -2455 51 -1407 90 -2391 99 -2468 42 -363
138 -631 274 -767 l66 -65 -34 -30 c-75 -66 -142 -201 -185 -374 -59 -239 -70
-401 -55 -811 11 -297 10 -332 -5 -410 -34 -169 -115 -282 -243 -342 -86 -41
-137 -44 -533 -29 -168 6 -494 15 -725 21 -231 6 -520 13 -641 16 l-221 6 -7
382 c-3 209 -9 609 -12 889 l-7 507 162 0 c141 0 167 2 201 20 56 29 83 72
100 159 5 26 -6 885 -25 2010 -42 2476 -39 2336 -59 2390 -24 65 -61 108 -119
139 l-52 27 -885 0 c-828 0 -889 -1 -955 -18 -142 -38 -213 -82 -495 -307
-146 -116 -269 -216 -275 -222 -7 -7 263 -8 860 -3 628 5 889 4 939 -4 190
-32 308 -163 361 -401 15 -67 19 -336 41 -2515 17 -1761 21 -2458 13 -2505
-14 -91 -76 -214 -141 -281 -88 -92 -257 -188 -415 -235 l-88 -27 -815 -8
c-448 -4 -894 -9 -990 -11 -173 -3 -176 -3 -225 24 -100 52 -180 172 -229 339
l-23 82 -23 -69 c-43 -131 -90 -214 -165 -290 -104 -105 -119 -110 -445 -123
-478 -20 -888 -41 -1340 -67 -502 -29 -627 -28 -710 5 -155 63 -246 192 -258
368 -2 39 3 221 13 405 19 353 17 511 -10 688 -34 232 -112 436 -197 521 l-43
42 66 66 c117 117 211 344 258 626 54 315 98 437 198 546 31 33 80 74 107 90
l51 29 -48 0 c-27 0 -147 -5 -269 -11 -121 -6 -222 -8 -225 -6 -4 5 60 1275
73 1424 l6 73 511 443 c282 243 676 584 877 756 201 173 376 324 389 337 23
21 24 26 13 62 -17 55 -46 89 -100 116 -94 47 -124 49 -759 41 l-593 -7 0 23
c-1 48 81 1645 86 1687 l5 42 1017 0 c601 0 1060 -4 1122 -10z m13367 -16 c86
-21 209 -85 284 -147 141 -117 209 -257 229 -471 6 -61 98 -1380 205 -2931
107 -1551 201 -2867 210 -2925 37 -235 114 -467 200 -606 41 -66 124 -155 153
-165 8 -3 -4 -22 -31 -52 -50 -53 -104 -158 -136 -262 -45 -145 -62 -285 -71
-585 -9 -293 -17 -352 -61 -481 -32 -93 -60 -145 -126 -234 -111 -149 -224
-231 -334 -242 -38 -3 -158 11 -409 51 -973 153 -2018 295 -2945 401 -170 19
-330 40 -355 46 -77 18 -161 71 -240 149 -84 83 -139 159 -194 267 -79 159
-94 235 -116 623 -13 228 -32 368 -71 528 -65 268 -177 486 -283 551 l-36 23
45 45 c83 83 153 263 190 493 30 188 29 332 -5 875 -18 281 -35 512 -37 515
-3 3 -151 13 -330 22 -179 9 -327 18 -329 21 -4 4 -94 1457 -94 1518 l0 29
113 -5 c61 -3 357 -15 657 -26 934 -34 2518 -104 2526 -112 7 -6 116 -1569
110 -1574 -3 -3 -173 6 -377 21 -204 15 -373 26 -375 23 -6 -5 133 -1982 145
-2066 14 -96 41 -155 80 -175 16 -9 59 -22 93 -30 101 -22 659 -80 700 -72 46
8 94 55 108 104 5 20 10 77 10 125 0 126 -318 4563 -330 4617 -35 145 -165
244 -363 275 -91 14 -377 24 -1877 60 -327 8 -757 17 -955 21 l-360 6 -45 -24
c-56 -29 -105 -93 -127 -166 -16 -56 -14 -102 91 -1897 119 -2029 113 -1963
196 -2215 63 -192 156 -351 234 -399 20 -13 36 -24 36 -25 0 -1 -20 -23 -45
-49 -110 -115 -189 -376 -210 -697 -7 -99 55 -1254 75 -1400 32 -234 217 -416
496 -490 47 -12 277 -43 569 -76 1539 -173 3008 -388 4430 -647 220 -41 230
-43 237 -67 9 -30 151 -2110 145 -2116 -2 -2 -62 9 -133 25 -244 57 -780 170
-1209 255 -1618 322 -3254 566 -5028 751 -343 35 -401 45 -530 92 -171 61
-433 218 -566 340 -79 71 -168 182 -217 268 -47 84 -99 231 -113 320 -6 39
-38 678 -71 1420 -65 1477 -63 1452 -91 1610 -56 313 -160 558 -282 660 l-44
37 41 42 c135 135 228 476 229 841 0 77 -46 1175 -103 2440 -88 1951 -101
2310 -92 2368 46 264 250 513 462 564 45 11 635 12 3222 8 2733 -5 3175 -8
3225 -21z m3997 -19 c92 -24 166 -66 232 -130 52 -51 73 -83 141 -220 44 -88
104 -218 134 -288 48 -113 55 -126 67 -110 7 10 56 92 109 183 194 334 307
471 442 538 l75 37 1525 3 c1113 2 1542 0 1586 -8 195 -38 312 -181 378 -465
l21 -90 6 -3820 5 -3820 22 -120 c54 -288 127 -470 233 -574 l55 -55 -60 -60
c-89 -90 -157 -240 -205 -454 -37 -169 -50 -329 -50 -632 0 -394 -14 -542 -66
-700 -46 -140 -121 -209 -227 -210 -32 0 -163 36 -420 114 -514 158 -658 200
-1152 341 l-430 123 -2 43 c-2 24 -16 483 -32 1019 -17 536 -33 1021 -35 1078
-5 92 -4 102 11 102 10 0 135 -25 278 -56 179 -39 274 -55 306 -52 79 8 149
71 179 163 16 50 20 -191 -45 2780 -30 1370 -55 2551 -56 2625 -2 253 -25 343
-109 434 -23 25 -66 57 -95 71 -51 25 -67 27 -406 46 -195 11 -393 19 -440 17
-112 -5 -179 -37 -256 -123 -42 -47 -350 -534 -565 -891 l-19 -32 58 -6 c32
-3 150 -13 263 -22 113 -8 219 -20 237 -25 46 -15 116 -95 142 -165 35 -92 51
-192 60 -393 5 -102 54 -1448 107 -2991 95 -2722 98 -2808 82 -2889 -27 -133
-83 -239 -177 -332 -107 -105 -199 -151 -314 -157 -76 -3 -108 3 -447 87 -713
175 -1468 348 -2135 486 -176 37 -414 87 -530 111 -172 35 -225 51 -290 83
-182 90 -310 280 -349 518 -8 48 -24 234 -36 413 -21 339 -38 487 -71 630 -63
274 -183 516 -291 588 -21 13 -38 26 -38 27 0 1 19 21 43 46 119 124 194 396
204 744 5 160 -8 376 -113 1952 -65 975 -115 1775 -111 1779 4 5 108 3 230 -4
410 -22 1312 -75 1315 -77 2 -2 52 -809 52 -847 0 -10 14 -33 31 -53 57 -64
107 -40 167 80 16 33 107 228 202 434 l172 373 -7 107 c-23 364 -109 572 -270
652 -80 39 -30 36 -1117 80 l-817 33 -6 51 c-5 46 -125 1854 -125 1883 0 9
275 12 1343 12 1164 0 1350 -2 1401 -15z m-21061 -841 c239 -55 393 -220 435
-466 15 -92 13 -123 -98 -1993 -122 -2040 -129 -2224 -97 -2445 39 -262 111
-449 211 -543 26 -25 28 -30 14 -38 -128 -72 -257 -336 -323 -663 -15 -72 -32
-213 -40 -318 -8 -103 -21 -216 -29 -251 -63 -266 -205 -451 -431 -562 -128
-63 -217 -80 -611 -120 -1088 -110 -2169 -243 -3224 -397 -298 -43 -518 -71
-570 -71 -196 0 -359 93 -430 246 -56 120 -60 152 -57 497 2 334 -4 396 -54
595 -28 109 -96 251 -147 304 -23 25 -41 45 -40 46 31 15 90 71 125 119 62 84
107 177 153 315 84 252 74 146 250 2656 94 1338 167 2317 175 2360 44 214 137
388 276 520 86 81 168 128 272 154 81 21 360 28 2187 51 454 6 895 12 980 13
85 2 345 4 578 5 361 2 434 0 495 -14z m-13419 -1132 c-70 -182 -211 -570
-220 -607 -4 -15 -13 -29 -20 -32 -8 -3 -14 -16 -14 -30 0 -14 -43 -156 -95
-316 -835 -2572 -1168 -5213 -999 -7937 276 -4481 1978 -8758 4863 -12219 810
-971 1761 -1922 2732 -2732 3461 -2885 7737 -4586 12219 -4863 503 -32 771
-39 1350 -39 579 0 847 7 1350 39 4482 277 8758 1979 12219 4863 971 810 1922
1761 2732 2732 1995 2395 3434 5189 4223 8204 680 2600 856 5381 510 8090
-204 1601 -595 3183 -1163 4701 l-72 191 3 99 3 99 84 -220 c775 -2035 1224
-4114 1356 -6275 51 -842 51 -1798 0 -2640 -297 -4874 -2262 -9486 -5572
-13080 -2058 -2235 -4526 -3985 -7293 -5170 -2253 -966 -4614 -1526 -7060
-1675 -842 -51 -1798 -51 -2640 0 -4073 249 -7979 1663 -11270 4080 -2903
2132 -5249 5004 -6745 8255 -1109 2411 -1749 4953 -1910 7590 -38 631 -49
1548 -26 2125 103 2493 574 4733 1482 7050 l24 60 3 -98 3 -99 -57 -146z
m39692 -1297 c553 -1751 853 -3468 946 -5410 26 -563 14 -1575 -28 -2220 -295
-4583 -2090 -8925 -5114 -12370 -323 -368 -511 -568 -949 -1006 -647 -647
-1110 -1062 -1775 -1592 -3183 -2536 -7081 -4089 -11136 -4436 -654 -56 -1104
-75 -1820 -75 -716 0 -1166 19 -1820 75 -4396 376 -8582 2162 -11905 5079
-368 323 -568 511 -1006 949 -535 535 -853 881 -1275 1386 -2726 3261 -4392
7300 -4753 11525 -56 654 -75 1104 -75 1820 0 585 8 871 40 1355 83 1291 280
2547 594 3780 44 171 90 348 104 395 l24 85 1 -698 c1 -655 0 -703 -18 -785
-79 -352 -199 -1091 -261 -1596 -108 -882 -150 -1596 -150 -2536 0 -646 14
-1051 56 -1590 183 -2397 766 -4667 1770 -6892 114 -254 454 -942 586 -1188
951 -1766 2095 -3315 3498 -4734 1021 -1032 2046 -1880 3225 -2666 1037 -692
2156 -1298 3310 -1792 2093 -897 4321 -1434 6605 -1592 532 -37 662 -41 1450
-41 788 0 918 4 1450 41 2444 169 4763 756 7032 1780 254 114 942 454 1188
586 1766 951 3315 2095 4734 3498 1496 1479 2692 3077 3684 4920 132 246 472
934 586 1188 1014 2247 1591 4509 1776 6957 45 594 64 1681 41 2281 -59 1522
-274 3008 -629 4354 l-67 255 -3 579 c-1 319 0 577 3 574 3 -3 39 -112 81
-243z m-39560 -2467 c-19 -69 -105 -608 -165 -1038 -64 -454 -124 -1066 -151
-1525 -11 -181 -13 -191 -35 -210 -16 -13 -30 -43 -41 -88 -9 -37 -18 -66 -20
-65 -7 8 25 517 57 888 44 532 134 1212 229 1749 27 156 50 287 50 292 0 4 15
10 33 12 17 2 36 5 41 5 4 1 5 -8 2 -20z m39533 -518 c76 -468 140 -965 180
-1405 36 -388 72 -949 70 -1085 l-1 -65 -23 75 c-13 41 -31 80 -40 86 -12 9
-17 49 -25 190 -35 617 -91 1191 -170 1749 -37 261 -40 295 -39 500 0 121 2
216 4 210 3 -5 22 -120 44 -255z m-25759 -2527 c139 -185 379 -354 618 -437
257 -89 390 -95 1097 -53 437 26 844 46 1345 67 271 11 333 19 467 57 90 25
94 25 155 10 153 -38 198 -39 852 -27 1310 23 2723 9 3930 -40 246 -10 370 -3
525 29 l91 18 4 -31 c3 -17 10 -161 16 -321 6 -159 15 -346 20 -415 41 -568
329 -1091 793 -1438 354 -265 706 -433 1052 -501 55 -11 258 -36 450 -56 1728
-176 3525 -450 5186 -789 477 -97 780 -164 1619 -355 l695 -158 3 31 c1 17
-40 649 -93 1404 -52 755 -95 1375 -95 1379 0 8 49 -1 469 -88 655 -136 1914
-419 1929 -434 7 -6 -22 -294 -54 -545 -469 -3688 -2251 -7054 -5039 -9521
-2512 -2223 -5668 -3551 -9010 -3793 -723 -53 -1507 -53 -2230 0 -2347 170
-4620 878 -6645 2072 -900 530 -1741 1152 -2542 1879 -224 203 -791 770 -990
990 -852 940 -1536 1897 -2131 2983 -948 1731 -1557 3671 -1772 5650 -14 129
-26 271 -28 314 l-2 79 100 23 c528 124 1441 319 2070 444 399 79 509 111 678
197 207 106 408 283 544 479 34 49 68 97 75 108 13 18 17 17 103 -12 178 -61
278 -76 500 -76 184 0 221 4 465 42 878 136 2313 316 3410 427 479 48 584 67
785 142 157 58 371 179 499 282 21 17 42 31 45 31 3 0 22 -22 41 -47z m-14128
-649 c-17 -2012 286 -4081 878 -6004 1104 -3585 3166 -6750 6020 -9241 2957
-2581 6670 -4249 10560 -4743 912 -116 1615 -160 2580 -160 701 0 1138 17
1740 69 4361 376 8454 2161 11705 5105 3408 3086 5652 7233 6354 11745 152
979 224 1862 238 2941 l6 492 29 17 c16 9 32 15 35 12 22 -23 8 -966 -22
-1492 -161 -2777 -854 -5381 -2092 -7855 -847 -1693 -1881 -3192 -3193 -4625
-223 -243 -930 -951 -1170 -1171 -1443 -1319 -2934 -2349 -4630 -3197 -1961
-981 -4010 -1621 -6165 -1926 -1573 -222 -3226 -257 -4825 -101 -2859 280
-5627 1175 -8125 2627 -1248 726 -2400 1577 -3510 2593 -245 224 -951 930
-1175 1175 -1312 1434 -2346 2931 -3193 4625 -1179 2357 -1863 4827 -2067
7470 -39 512 -67 1419 -55 1792 l7 227 36 -18 36 -19 -2 -338z m3102 -1286 c2
-13 9 -93 16 -178 91 -1283 381 -2712 810 -4000 582 -1748 1449 -3394 2568
-4873 690 -913 1514 -1798 2377 -2552 2606 -2278 5839 -3711 9225 -4089 707
-79 1196 -106 1940 -106 501 0 767 8 1165 35 3699 252 7190 1704 10000 4160
546 477 1133 1064 1610 1610 1070 1224 1972 2611 2642 4065 828 1794 1345
3752 1498 5670 12 158 15 168 36 163 18 -5 20 -12 15 -67 -4 -33 -13 -140 -22
-236 -272 -3087 -1439 -6122 -3318 -8625 -701 -934 -1531 -1830 -2411 -2604
-2469 -2169 -5532 -3579 -8785 -4045 -1915 -274 -3893 -220 -5785 159 -2767
553 -5363 1796 -7530 3605 -673 562 -1340 1212 -1914 1865 -2287 2603 -3727
5861 -4110 9300 -17 149 -37 358 -46 465 -8 107 -17 216 -19 242 -5 44 0 54
26 57 4 1 10 -9 12 -21z m4534 -12488 c47 -29 72 -76 72 -135 0 -92 -62 -155
-153 -155 -108 0 -181 90 -157 194 9 40 51 92 85 106 38 16 118 11 153 -10z
m24972 -2 c55 -38 74 -72 74 -131 0 -61 -26 -112 -72 -139 -42 -25 -128 -24
-170 2 -95 58 -97 205 -3 267 47 32 125 32 171 1z m-22843 -1583 c135 -40 200
-203 133 -334 -67 -133 -258 -163 -369 -58 -150 143 -50 398 160 406 14 1 48
-6 76 -14z m20672 4 c203 -43 249 -320 71 -426 -118 -71 -269 -30 -333 91 -28
54 -30 155 -3 206 44 83 100 121 208 139 4 0 30 -4 57 -10z m-18474 -1173 c68
-31 115 -74 151 -138 27 -49 29 -61 29 -155 l0 -103 155 -71 c2025 -934 4215
-1491 6460 -1644 294 -20 774 -40 792 -32 11 4 17 26 20 85 9 161 107 301 263
378 l79 39 126 0 126 0 79 -39 c156 -77 254 -217 263 -378 3 -59 9 -81 20 -85
18 -8 498 12 792 32 2245 153 4435 710 6460 1644 l155 71 0 103 c0 94 2 106
29 155 60 107 162 167 286 166 92 -1 149 -24 219 -89 68 -64 95 -128 95 -230
0 -60 -5 -92 -21 -127 -32 -69 -94 -131 -164 -163 -56 -25 -70 -27 -148 -23
-101 5 -151 27 -216 93 l-42 44 -174 -81 c-635 -294 -1421 -598 -2111 -817
-1625 -515 -3250 -793 -5000 -857 l-187 -7 -15 -45 c-53 -153 -204 -276 -373
-303 -219 -36 -449 99 -519 303 l-15 45 -187 7 c-1750 64 -3375 342 -5000 857
-690 219 -1476 523 -2111 817 l-174 81 -42 -44 c-65 -66 -115 -88 -216 -93
-78 -4 -92 -2 -148 23 -70 32 -132 94 -164 163 -30 67 -30 188 1 257 41 89
134 166 223 185 62 13 146 3 204 -24z"/>
<path d="M29565 45114 c-978 -36 -1767 -128 -2630 -304 -2805 -574 -5338
-1915 -7436 -3934 l-157 -151 -32 -468 c-17 -258 -30 -470 -28 -472 1 -2 109
1 238 5 129 5 591 14 1025 20 2929 39 3009 40 3170 16 66 -10 165 -31 220 -46
55 -16 101 -27 103 -25 3 3 51 874 52 933 l0 23 1668 -4 c1498 -3 1677 -5
1769 -20 170 -28 365 -81 472 -129 l64 -28 91 34 c117 44 310 91 451 110 258
35 384 37 2220 34 1710 -3 1815 -4 1905 -22 222 -43 419 -120 593 -233 l69
-44 76 49 c164 105 339 177 542 223 l105 24 3277 0 c1803 0 3278 2 3278 5 0
19 -637 606 -896 826 -2102 1783 -4577 2932 -7279 3379 -548 91 -1109 151
-1720 185 -189 11 -1038 20 -1210 14z"/>
<path d="M14900 37929 c-133 -26 -279 -145 -342 -279 -100 -211 -97 -482 7
-678 46 -87 71 -120 83 -107 5 6 19 91 31 190 25 202 71 442 101 530 27 79 95
186 170 268 34 37 59 71 55 77 -7 12 -42 11 -105 -1z"/>
<path d="M15700 34813 c-19 -2 -300 -33 -625 -69 -1215 -133 -2323 -268 -2383
-290 -66 -25 -154 -95 -210 -170 -71 -94 -152 -302 -188 -477 -22 -111 -73
-2095 -56 -2209 21 -143 76 -224 160 -235 50 -6 534 98 592 127 137 70 231
254 259 505 6 50 24 475 42 945 17 470 34 858 37 861 10 9 1573 220 1581 213
2 -1 -16 -364 -39 -806 -23 -442 -42 -849 -41 -904 1 -248 92 -411 233 -421
78 -6 602 88 664 118 54 28 116 94 151 162 46 91 63 187 78 447 8 135 38 637
66 1117 57 944 57 939 6 1015 -13 18 -40 43 -62 55 -34 20 -53 22 -135 21 -52
-1 -111 -3 -130 -5z"/>
<path d="M12073 34471 c-159 -106 -303 -282 -360 -439 -42 -115 -106 -463
-137 -747 -49 -442 -49 -966 0 -1385 45 -389 97 -561 206 -685 51 -58 126
-104 138 -85 6 9 0 25 -17 44 -57 68 -93 205 -93 354 0 55 13 365 30 688 16
324 39 841 50 1149 15 406 25 581 36 635 30 139 115 315 219 449 36 48 42 61
31 70 -11 9 -33 -1 -103 -48z"/>
<path d="M14420 33530 c-177 -304 -287 -828 -265 -1275 10 -225 47 -357 137
-497 91 -140 245 -248 359 -252 53 -1 78 16 41 29 -34 10 -120 103 -161 173
-50 84 -86 192 -102 303 -9 70 -9 137 5 360 8 151 22 436 31 634 8 198 17 413
20 478 6 143 -4 151 -65 47z"/>
<path d="M28375 38024 c-230 -48 -415 -182 -513 -372 -54 -104 -96 -262 -73
-276 15 -10 338 243 600 470 62 55 129 113 149 130 21 18 32 35 28 42 -7 12
-144 15 -191 6z"/>
<path d="M26223 35921 c-133 -49 -221 -164 -242 -316 -6 -41 -6 -74 -1 -79 13
-13 274 179 470 347 59 50 47 60 -78 64 -77 3 -108 -1 -149 -16z"/>
<path d="M27725 35819 c-214 -3 -469 -7 -567 -8 l-176 -1 -244 -176 c-133 -97
-245 -179 -248 -182 -3 -2 68 -2 157 2 l162 7 -53 -84 c-100 -160 -94 -115
-127 -992 -37 -973 -39 -1125 -17 -1183 21 -52 50 -90 86 -114 21 -14 48 -18
127 -18 226 0 291 36 327 180 5 19 19 370 33 779 13 409 27 746 30 749 7 7
1073 28 1078 21 2 -2 -3 -323 -11 -712 -14 -756 -13 -802 31 -888 37 -73 61
-83 194 -87 143 -5 174 1 218 39 92 81 105 139 111 509 18 1148 24 1920 14
1970 -20 106 -61 161 -139 188 -37 13 -292 13 -986 1z"/>
<path d="M26240 35108 c-34 -57 -109 -234 -149 -357 -65 -197 -118 -465 -141
-711 -24 -270 -5 -752 36 -915 57 -225 246 -425 441 -465 77 -16 88 2 27 43
-127 84 -231 270 -249 447 -4 36 0 236 9 445 8 209 20 506 26 660 6 154 15
345 20 425 5 80 12 216 16 303 7 168 2 187 -36 125z"/>
<path d="M27876 34428 c-180 -283 -260 -698 -211 -1094 21 -169 59 -270 142
-381 67 -89 149 -144 238 -157 73 -11 137 22 81 43 -41 16 -106 81 -132 134
-14 27 -34 82 -44 123 -18 70 -19 107 -13 729 6 608 5 655 -10 655 -10 0 -32
-23 -51 -52z"/>
<path d="M35460 38127 c-120 -49 -202 -127 -269 -256 -74 -142 -87 -251 -127
-1011 -42 -810 -23 -2756 32 -3194 28 -225 84 -415 168 -572 l46 -83 -25 -65
c-39 -104 -65 -251 -65 -371 0 -261 207 -1773 271 -1981 33 -106 93 -216 154
-282 62 -67 153 -121 167 -99 5 7 0 17 -15 27 -47 30 -106 101 -136 162 -57
116 -70 196 -86 508 -82 1631 -84 1696 -50 1825 24 88 87 212 139 274 l46 53
-45 30 c-84 56 -152 175 -198 348 -40 147 -56 275 -67 530 -5 129 -33 757 -60
1395 -28 638 -62 1412 -76 1720 -27 599 -26 645 16 759 43 113 118 201 236
272 13 8 16 15 9 22 -7 8 -27 4 -65 -11z"/>
<path d="M38791 36118 c-19 -113 -39 -271 -52 -410 -7 -76 -16 -138 -21 -138
-5 0 -75 11 -156 25 -81 14 -250 40 -376 58 l-228 34 5 -516 c5 -499 16 -738
52 -1136 33 -357 106 -878 166 -1179 69 -341 261 -566 486 -566 53 0 60 25 11
35 -141 31 -250 165 -298 368 -24 104 -22 76 -76 1087 -25 470 -55 1024 -68
1230 -13 206 -22 377 -19 380 2 2 155 -6 340 -18 185 -12 337 -21 339 -19 1 1
-13 178 -32 392 -18 215 -34 400 -34 413 0 12 -6 22 -14 22 -9 0 -18 -21 -25
-62z"/>
<path d="M46070 37667 c-165 -56 -395 -287 -529 -531 -85 -154 -135 -311 -153
-488 -9 -85 -8 -111 2 -123 11 -13 22 -2 78 77 95 135 382 567 502 757 97 153
182 257 239 292 65 41 -35 52 -139 16z"/>
<path d="M43181 36398 c-72 -149 -92 -239 -98 -433 -4 -123 -1 -177 11 -235
55 -261 275 -453 499 -437 93 6 103 23 34 57 -76 37 -197 160 -235 240 -47 97
-58 156 -92 495 -37 376 -42 407 -57 412 -7 3 -33 -38 -62 -99z"/>
<path d="M43294 33923 c-12 -418 -10 -922 5 -1093 26 -308 79 -647 122 -785
58 -190 201 -380 336 -449 80 -40 108 -33 57 15 -57 53 -126 170 -162 274 -45
132 -51 193 -67 715 -8 278 -18 587 -22 688 l-6 183 51 -34 c80 -55 168 -58
247 -9 20 13 75 91 166 238 229 369 292 475 286 481 -17 16 -204 -144 -398
-340 l-157 -158 -212 273 c-117 150 -219 279 -225 286 -10 11 -14 -47 -21
-285z"/>
<path d="M44713 33933 c-11 -16 -134 -212 -274 -437 -140 -225 -268 -424 -286
-442 -46 -46 -83 -52 -144 -20 -27 14 -49 22 -49 18 0 -43 51 -859 56 -892 15
-113 75 -208 147 -234 45 -16 769 -146 816 -146 45 0 93 39 123 100 45 89 51
194 32 578 -40 856 -72 1454 -78 1459 -6 7 -259 42 -303 43 -13 0 -29 -11 -40
-27z"/>
<path d="M20153 37131 c-163 -59 -286 -169 -354 -317 -66 -144 -196 -773 -263
-1274 -86 -638 -123 -1407 -97 -1980 14 -302 24 -389 57 -490 60 -181 196
-349 346 -425 113 -58 119 -39 21 61 -117 118 -179 247 -203 422 -9 69 -2 177
65 942 41 476 106 1270 145 1765 38 495 75 918 81 940 34 120 153 268 262 325
86 46 43 68 -60 31z"/>
<path d="M21935 36913 c-27 -2 -333 -15 -680 -28 -346 -14 -646 -30 -665 -35
-103 -27 -195 -119 -225 -224 -10 -34 -55 -620 -134 -1738 -108 -1510 -119
-1692 -107 -1737 27 -105 97 -170 207 -193 46 -9 117 -5 469 30 228 23 537 53
685 67 334 31 338 31 405 63 109 51 204 186 228 323 6 35 60 789 118 1675
l107 1612 -24 48 c-28 58 -81 96 -159 117 -63 17 -152 25 -225 20z"/>
<path d="M23938 30523 l-68 -46 0 -2509 c0 -2385 1 -2509 18 -2504 35 10 224
57 557 136 187 44 348 83 358 86 16 5 17 119 17 2215 0 1759 -3 2210 -12 2213
-325 99 -494 191 -707 384 -44 40 -83 72 -88 71 -4 0 -38 -21 -75 -46z"/>
<path d="M23700 30393 c-195 -91 -433 -153 -695 -181 l-160 -17 -3 -2513 c-2
-2127 0 -2512 12 -2512 7 0 33 7 57 16 39 14 520 154 704 205 39 11 94 26 123
35 l52 15 0 2494 c0 1372 -3 2495 -7 2494 -5 0 -42 -16 -83 -36z"/>
<path d="M27590 30214 c-94 -24 -240 -38 -502 -50 l-128 -6 0 -1674 0 -1674
58 39 c31 22 87 51 124 66 59 23 67 30 63 49 -3 11 -16 68 -29 126 -84 361
-166 903 -166 1093 0 116 31 177 113 219 36 18 52 19 280 12 236 -6 314 -2
445 26 l52 12 0 877 0 877 -88 17 c-107 21 -104 21 -222 -9z"/>
<path d="M29048 30213 l-38 -4 0 -553 0 -553 75 5 c98 6 181 -11 281 -58 146
-68 263 -158 472 -364 l122 -121 0 828 0 827 -437 -2 c-241 -1 -455 -3 -475
-5z"/>
<path d="M30040 29342 l0 -879 50 -82 c73 -123 92 -180 97 -291 4 -87 3 -98
-19 -130 -23 -34 -48 -52 -100 -70 l-28 -10 0 -142 1 -143 122 127 c67 70 136
134 154 142 17 9 75 21 127 26 161 18 352 -12 478 -76 26 -13 52 -24 58 -24 7
0 10 384 10 1208 l0 1209 -197 6 c-108 4 -321 7 -475 7 l-278 0 0 -878z"/>
<path d="M28208 30203 l-228 -3 0 -860 c0 -707 2 -860 13 -860 31 0 171 54
282 110 149 75 259 153 417 298 68 63 149 130 181 149 l57 36 0 568 0 569
-247 -2 c-137 -2 -350 -4 -475 -5z"/>
<path d="M31070 28965 l0 -1247 26 -30 c68 -82 104 -193 104 -324 0 -136 -42
-277 -111 -376 -18 -25 -19 -56 -17 -749 l3 -723 44 -8 c71 -12 128 -54 286
-208 163 -159 278 -260 480 -420 l130 -103 3 2694 c1 1482 0 2699 -2 2705 -3
8 -90 13 -268 18 -144 3 -356 9 -470 12 l-208 7 0 -1248z"/>
<path d="M22625 30175 c-66 -8 -276 -30 -467 -51 l-348 -37 -2 -2589 -3 -2589
-35 58 -35 58 -5 2525 -5 2526 -160 -18 c-232 -25 -736 -87 -762 -93 l-23 -5
-1 -1393 0 -1392 -34 110 -34 110 0 1279 -1 1279 -62 -7 c-95 -11 -855 -115
-918 -126 -94 -16 -620 -90 -715 -100 -188 -21 -428 -1 -615 49 -73 20 -75 20
-90 2 -8 -10 -42 -53 -74 -95 -196 -253 -511 -466 -825 -558 -36 -10 -266 -59
-511 -108 -790 -157 -1926 -403 -1944 -421 -19 -17 53 -606 130 -1069 418
-2526 1490 -4906 3125 -6940 360 -449 667 -789 1108 -1231 450 -449 789 -754
1252 -1125 l216 -174 84 -10 c46 -6 223 -14 393 -17 261 -5 308 -3 303 8 -3 8
-31 75 -62 149 -455 1073 -609 1931 -494 2749 74 528 255 1015 532 1431 194
291 498 600 676 687 49 25 68 28 151 28 86 0 101 -3 160 -31 129 -62 246 -192
334 -370 129 -263 234 -528 446 -1129 170 -481 243 -674 332 -880 97 -225 255
-522 368 -694 227 -345 392 -482 608 -507 69 -7 163 14 220 50 87 55 150 164
160 277 l4 56 -59 59 c-33 32 -72 80 -87 106 -28 49 -80 190 -91 251 -9 46
-32 66 -215 188 -220 147 -308 242 -375 406 -48 120 -69 306 -45 395 27 95
131 116 258 53 119 -60 204 -161 341 -405 27 -47 51 -85 56 -85 4 0 16 23 27
50 10 28 30 73 45 102 l25 51 -49 109 c-61 134 -148 273 -278 449 l-100 134
-115 68 c-216 127 -432 283 -518 372 -126 132 -233 315 -274 470 -32 122 -32
379 1 529 28 130 69 261 134 421 42 104 51 138 55 206 8 144 -36 344 -101 453
-62 104 -266 239 -417 276 -71 17 -312 32 -354 21 l-26 -6 0 -493 -1 -492 -39
45 -40 45 0 438 c0 365 -2 437 -14 437 -35 0 -306 -116 -306 -131 0 -32 83
-320 142 -494 77 -227 86 -283 54 -343 -23 -44 -71 -72 -123 -72 -62 0 -109
46 -172 169 -161 313 -184 620 -60 780 15 19 19 41 19 105 1 258 130 461 369
581 38 19 74 35 80 35 8 0 11 724 11 2530 0 1392 -3 2529 -7 2529 -5 -1 -62
-7 -128 -14z"/>
<path d="M32100 27446 l0 -2735 123 -103 c233 -195 420 -398 542 -586 108
-169 203 -413 251 -650 14 -70 26 -128 27 -129 1 -1 1 1415 0 3145 -2 2592 -5
3203 -18 3466 -8 175 -16 320 -18 322 -1 2 -48 -1 -102 -7 -69 -7 -183 -7
-367 0 -146 6 -305 11 -352 11 l-86 0 0 -2734z"/>
<path d="M26480 30139 c-201 -10 -407 -21 -457 -24 l-93 -7 0 -2090 0 -2090
23 5 c128 32 655 124 869 152 l46 6 2 2034 c0 1648 -2 2035 -12 2034 -7 -1
-177 -10 -378 -20z"/>
<path d="M24900 27906 c0 -1208 2 -2196 5 -2196 3 0 74 16 158 35 83 19 291
64 461 100 170 36 313 68 318 71 4 3 8 945 8 2095 l0 2089 -47 0 c-27 0 -176
-7 -331 -17 -234 -14 -306 -15 -411 -5 -70 6 -135 14 -144 18 -16 6 -17 -133
-17 -2190z"/>
<path d="M33127 24994 c-3 -2264 -10 -4121 -14 -4125 -4 -4 -20 -11 -35 -14
l-28 -7 -1 313 c-1 333 -3 337 -39 94 -12 -77 -70 -345 -130 -595 -163 -684
-192 -831 -192 -1003 0 -60 2 -110 4 -112 2 -2 33 5 68 16 44 15 103 23 185
26 117 5 122 5 225 -30 58 -19 204 -82 325 -140 501 -238 1040 -430 1495 -532
63 -14 155 -35 203 -46 l89 -20 34 31 c117 102 264 115 345 30 63 -66 59 -145
-10 -203 -39 -32 -98 -35 -230 -12 -64 11 -88 12 -98 3 -8 -6 -10 -14 -6 -18
4 -4 59 -22 122 -40 400 -112 650 -239 836 -425 l90 -90 80 17 c105 22 302 23
401 2 156 -32 331 -107 518 -222 50 -30 256 -168 459 -306 358 -244 367 -251
367 -283 0 -18 3 -33 6 -33 9 0 439 289 606 408 465 331 903 683 1368 1100
238 213 839 814 1052 1052 742 828 1349 1662 1879 2581 996 1729 1641 3654
1893 5649 51 402 53 427 30 434 -122 37 -2012 451 -2021 442 -1 -1 42 -636 96
-1411 54 -776 97 -1411 96 -1413 -1 -1 -179 38 -396 87 -693 157 -1408 318
-1604 361 -428 93 -1556 313 -1875 365 -47 8 -285 47 -530 88 -245 41 -462 77
-482 80 l-38 6 0 -1034 0 -1034 -40 -63 -40 -63 0 1101 0 1102 -22 5 c-13 4
-216 33 -453 67 -236 33 -440 63 -452 65 l-23 5 0 -1812 0 -1813 -40 -45 -39
-45 -1 1861 0 1861 -47 7 c-49 7 -712 90 -835 104 l-68 8 0 -2380 0 -2381 -40
-33 -40 -33 0 2419 0 2418 -112 12 c-62 7 -259 28 -438 47 -179 19 -342 35
-362 35 l-38 0 -2 -2811 -3 -2812 -37 -24 -38 -23 0 2843 0 2844 -83 16 c-241
48 -555 171 -787 310 l-75 45 -3 -3289 -2 -3289 -40 -20 -40 -20 0 3337 0
3338 -22 14 c-76 46 -267 200 -356 286 -234 225 -426 515 -525 794 l-34 93 -6
-4118z"/>
<path d="M29009 28962 c-66 -27 -120 -67 -237 -176 -124 -115 -193 -169 -304
-238 -179 -111 -376 -189 -597 -235 -109 -23 -151 -26 -316 -27 -104 0 -231 1
-281 4 -104 6 -118 -1 -134 -59 -17 -65 44 -539 115 -891 57 -281 77 -360 92
-360 8 0 58 11 111 25 53 13 232 54 397 90 687 152 969 237 1270 385 165 81
288 160 440 279 201 159 297 215 426 246 83 21 89 33 64 133 -34 136 -124 271
-300 448 -190 191 -341 306 -477 362 -83 35 -202 40 -269 14z"/>
<path d="M29887 27828 c-31 -17 -114 -75 -185 -129 -202 -156 -355 -254 -529
-340 l-163 -80 0 -165 0 -165 23 7 c49 15 248 109 352 166 146 79 368 228 483
323 l92 76 0 169 c0 94 -3 170 -7 170 -5 0 -34 -15 -66 -32z"/>
<path d="M30455 27765 c-5 -2 -28 -6 -50 -10 -34 -6 -56 -25 -175 -147 -273
-284 -541 -479 -910 -664 -497 -248 -1049 -387 -1680 -423 -91 -6 -185 -6
-209 -2 -86 17 -127 68 -162 201 -13 49 -27 90 -31 90 -29 0 -124 -48 -162
-82 -66 -57 -90 -107 -90 -189 0 -91 51 -197 127 -263 153 -135 464 -207 886
-207 430 0 843 79 1441 273 238 77 1004 351 1107 396 262 114 430 265 493 444
72 205 29 383 -118 486 -50 36 -169 77 -262 92 -61 9 -183 12 -205 5z"/>
<path d="M28835 27218 c-150 -56 -470 -142 -832 -223 -23 -5 -23 -8 -23 -161
l0 -155 48 6 c230 33 516 100 750 176 l152 50 0 170 c0 93 -3 169 -7 168 -5 0
-44 -14 -88 -31z"/>
<path d="M27835 26960 c-16 -4 -123 -29 -237 -55 -114 -27 -212 -51 -218 -55
-8 -5 -5 -30 11 -86 28 -104 33 -112 74 -120 34 -6 336 11 403 22 l32 6 0 149
c0 164 3 158 -65 139z"/>
<path d="M30943 26827 c-42 -37 -135 -101 -200 -137 l-41 -23 30 -26 c52 -43
65 -89 82 -286 22 -253 46 -635 46 -726 0 -48 4 -79 11 -81 11 -4 -2 -92 -19
-138 -3 -8 9 2 28 23 18 21 50 47 72 58 l38 19 0 675 c0 371 -2 675 -5 675 -3
0 -22 -15 -42 -33z"/>
<path d="M30495 26508 c-55 -23 -179 -71 -275 -108 l-175 -66 -3 -1083 -2
-1083 32 7 c18 3 65 22 105 41 92 44 171 129 235 250 86 166 207 525 289 862
l40 162 -11 213 c-15 319 -51 767 -64 807 -15 49 -47 48 -171 -2z"/>
<path d="M29770 26235 c-96 -35 -307 -108 -467 -161 l-293 -96 0 -759 0 -759
38 -24 c63 -40 230 -121 331 -160 149 -59 349 -106 474 -113 l107 -6 0 1072
c0 589 -3 1071 -7 1070 -5 0 -87 -29 -183 -64z"/>
<path d="M26960 26171 l0 -71 83 1 82 0 -30 22 c-16 12 -53 44 -82 71 l-53 49
0 -72z"/>
<path d="M28549 25986 c-9 -8 -284 -37 -419 -44 l-145 -7 -3 -73 c-3 -68 -1
-78 29 -124 l32 -49 41 39 c82 78 231 159 421 228 49 18 81 33 69 34 -11 0
-23 -2 -25 -4z"/>
<path d="M26973 25969 c-225 -16 -474 -57 -1083 -180 -1066 -216 -2209 -498
-2903 -716 l-147 -47 2 -182 3 -183 160 -5 c244 -8 396 -55 554 -171 179 -131
238 -232 286 -480 30 -154 19 -401 -17 -379 -7 5 -9 2 -5 -9 3 -9 -16 -76 -43
-150 -151 -415 -171 -684 -66 -927 48 -114 99 -184 215 -300 93 -93 287 -247
298 -236 2 2 -28 52 -67 112 -39 60 -100 168 -136 239 -82 166 -99 245 -91
424 15 364 171 583 547 771 219 109 442 165 630 158 135 -6 198 -26 288 -92
83 -61 136 -138 251 -363 60 -119 123 -227 156 -268 106 -135 220 -212 380
-256 116 -31 352 -35 1040 -14 317 9 600 14 629 11 166 -21 315 -169 442 -440
38 -82 53 -106 69 -106 51 -1 198 -45 281 -84 125 -59 203 -114 307 -215 326
-316 412 -781 227 -1214 -67 -157 -57 -212 46 -258 109 -49 542 -69 739 -35
238 42 430 130 572 263 58 54 50 20 73 318 29 369 104 776 215 1166 29 102 65
208 78 236 67 131 190 168 274 81 50 -52 64 -99 70 -228 7 -152 -2 -204 -97
-544 l-80 -289 0 -483 c0 -454 -1 -484 -17 -484 -10 0 -28 -3 -40 -6 l-23 -6
-2 363 c-2 286 -5 358 -15 338 -60 -133 -152 -310 -199 -379 l-56 -84 11 -86
c27 -208 109 -340 266 -425 28 -15 64 -36 80 -45 41 -25 144 -65 424 -166 328
-118 739 -291 849 -356 30 -18 83 -59 116 -92 l60 -58 18 22 c16 19 18 43 18
176 0 240 29 403 196 1094 168 695 208 1019 209 1675 0 496 -27 781 -99 1067
-120 476 -330 751 -951 1248 -351 280 -384 309 -580 501 -88 86 -174 163 -191
172 -92 47 -159 24 -192 -65 -11 -30 -39 -173 -62 -319 -98 -626 -159 -796
-407 -1137 -129 -177 -255 -321 -424 -487 -254 -248 -390 -343 -521 -365 -122
-19 -244 27 -354 135 -85 84 -376 479 -553 750 -233 359 -434 753 -541 1061
l-32 92 -45 6 c-89 12 -234 116 -318 228 -143 190 -194 419 -143 637 4 17 -54
36 -172 55 -118 20 -264 25 -407 15z"/>
<path d="M28720 25890 c-339 -107 -515 -198 -591 -303 -36 -49 -34 -55 45
-217 152 -312 407 -611 704 -824 l52 -38 0 721 c0 570 -3 721 -12 720 -7 0
-96 -27 -198 -59z"/>
<path d="M27816 25932 c5 -4 26 -20 47 -36 l37 -27 0 35 0 36 -47 0 c-26 0
-43 -4 -37 -8z"/>
<path d="M27666 25819 c-32 -161 41 -383 171 -519 l62 -65 1 201 c0 200 0 201
-26 240 -53 79 -158 174 -192 174 -5 0 -12 -14 -16 -31z"/>
<path d="M27981 25238 c-1 -48 2 -59 19 -68 19 -10 20 -9 14 17 -4 15 -13 46
-20 68 l-12 40 -1 -57z"/>
<path d="M28181 25077 c-1 -11 93 -262 132 -354 59 -135 191 -389 282 -543 90
-151 310 -486 326 -496 5 -3 9 133 9 333 l-1 338 -67 42 c-218 136 -490 408
-664 663 -9 14 -17 22 -17 17z"/>
<path d="M30732 24947 c-79 -266 -176 -504 -255 -624 -92 -142 -229 -241 -379
-274 l-58 -12 0 -259 c0 -142 2 -258 4 -258 10 0 216 242 288 336 95 125 191
270 230 349 49 95 114 307 146 475 34 172 65 370 60 375 -2 2 -18 -47 -36
-108z"/>
<path d="M22701 24967 c-61 -31 -170 -135 -208 -198 -50 -84 -86 -261 -50
-246 111 48 213 87 260 101 l57 17 0 174 c0 96 -3 175 -7 175 -5 0 -28 -10
-52 -23z"/>
<path d="M29010 23928 l0 -373 109 -145 c281 -375 378 -386 720 -85 l121 107
0 299 0 299 -62 0 c-203 0 -497 81 -758 209 -63 30 -118 57 -122 59 -5 2 -8
-164 -8 -370z"/>
<path d="M22333 24120 c4 -66 15 -140 32 -200 25 -94 122 -311 144 -324 29
-18 18 38 -42 211 -35 103 -77 235 -92 293 -16 58 -33 110 -38 115 -6 6 -7
-29 -4 -95z"/>
<path d="M24995 23580 c-194 -26 -458 -127 -627 -241 -206 -139 -309 -336
-310 -594 -1 -135 16 -204 84 -340 55 -111 218 -360 331 -505 l74 -95 174 -97
c209 -116 553 -288 575 -288 8 0 36 14 60 31 73 50 196 107 265 124 91 21 239
19 331 -4 145 -37 238 -102 288 -200 21 -43 38 -62 71 -80 24 -13 98 -61 165
-106 153 -105 166 -112 397 -196 435 -160 702 -251 1005 -343 16 -6 22 -3 22
8 0 9 -4 16 -10 16 -20 0 -40 60 -40 120 0 81 26 156 116 326 113 216 126 272
131 599 2 143 8 278 14 300 14 50 43 92 79 114 l28 17 -25 59 c-46 110 -116
218 -193 296 -108 110 -80 106 -620 90 -819 -23 -969 -25 -1077 -12 -180 21
-299 65 -429 157 -129 91 -219 215 -358 492 -128 252 -204 326 -366 352 -71
11 -69 11 -155 0z"/>
<path d="M22275 22931 c-97 -44 -326 -257 -475 -442 -367 -455 -597 -1026
-677 -1679 -21 -176 -24 -617 -5 -785 53 -464 163 -896 367 -1445 67 -179 212
-531 225 -544 18 -18 421 30 669 80 484 97 869 231 1361 471 303 148 331 156
510 157 126 1 154 -2 214 -22 149 -50 243 -108 532 -324 225 -168 328 -231
438 -270 140 -48 222 -33 304 56 87 94 115 194 132 466 13 216 35 313 100 445
149 301 427 506 843 620 127 36 127 35 97 47 -54 21 -341 101 -447 124 -199
43 -390 48 -535 15 -25 -6 -100 -31 -166 -55 -172 -64 -265 -80 -437 -73 -77
3 -152 9 -166 12 -25 7 -26 5 -38 -57 -46 -239 -223 -388 -461 -390 -280 -3
-488 151 -755 557 -256 390 -418 752 -710 1585 -314 896 -469 1239 -622 1380
-91 85 -208 112 -298 71z"/>
<path d="M31071 22113 c0 -149 4 -230 9 -216 51 125 52 434 3 451 -10 3 -13
-48 -12 -235z"/>
<path d="M30978 22185 c-24 -76 -104 -387 -133 -520 -53 -250 -123 -745 -105
-745 8 0 122 246 155 335 13 33 39 119 59 190 l36 131 -2 314 c-2 173 -6 306
-10 295z"/>
<path d="M28394 22017 c32 -154 38 -239 33 -417 -6 -199 -26 -314 -82 -470
-81 -222 -239 -455 -326 -482 -22 -6 -39 -17 -39 -25 0 -7 2 -13 4 -13 2 0
121 -34 263 -75 282 -83 648 -184 691 -191 15 -3 53 -14 85 -24 107 -37 320
-89 632 -154 171 -36 339 -72 375 -81 36 -8 180 -42 321 -74 704 -164 1086
-275 1429 -416 241 -98 494 -184 545 -185 31 0 -111 77 -240 130 -49 20 -151
63 -225 95 -74 32 -261 104 -415 161 -154 56 -310 113 -347 127 -107 40 -226
115 -309 197 -61 60 -85 92 -117 160 -22 47 -46 114 -53 150 -7 36 -16 69 -20
73 -4 5 -28 -7 -54 -27 -121 -93 -257 -156 -448 -207 -104 -28 -128 -31 -332
-36 -230 -6 -448 11 -551 42 -65 19 -151 79 -177 123 -17 29 -23 33 -25 18 -3
-13 -10 -16 -25 -12 -12 3 -30 6 -39 6 -17 0 -18 38 -18 658 l0 658 -57 55
c-137 132 -252 199 -435 254 l-50 15 6 -33z"/>
<path d="M28241 21992 c-7 -13 -11 -92 -11 -210 0 -368 -21 -469 -150 -727
-84 -168 -120 -275 -93 -275 17 0 112 135 162 230 60 116 104 239 132 373 29
137 32 379 5 517 -20 105 -29 122 -45 92z"/>
<path d="M29010 21100 l0 -505 36 85 c125 297 135 527 34 788 -16 42 -39 91
-50 107 l-20 30 0 -505z"/>
<path d="M24745 21539 c5 -8 36 -55 70 -105 34 -51 83 -137 110 -193 l49 -101
70 68 c39 37 86 79 104 93 l33 25 -178 87 c-98 48 -198 98 -222 113 -24 15
-40 21 -36 13z"/>
<path d="M25700 21460 c-61 -11 -168 -52 -221 -86 l-44 -27 34 -15 c37 -15 39
-14 146 18 39 11 106 24 150 28 l80 7 3 36 c3 31 -1 37 -20 43 -28 7 -69 6
-128 -4z"/>
<path d="M25930 21416 c0 -22 5 -25 61 -31 33 -4 63 -4 66 -1 7 6 -95 56 -114
56 -7 0 -13 -11 -13 -24z"/>
<path d="M25215 21188 c-48 -40 -110 -98 -136 -128 l-47 -55 21 -77 c12 -43
24 -78 27 -78 3 0 16 21 30 48 34 63 157 226 214 282 25 24 46 47 46 50 0 7
-45 30 -58 30 -5 0 -48 -33 -97 -72z"/>
<path d="M25775 21252 c-22 -2 -44 -7 -48 -11 -7 -7 90 -49 153 -66 14 -4 39
-15 55 -25 29 -18 150 -61 208 -74 27 -6 27 -6 26 41 -2 87 -10 105 -54 121
-38 13 -239 22 -340 14z"/>
<path d="M24250 21137 c0 -152 59 -303 163 -414 53 -56 281 -223 306 -223 5 0
11 35 13 78 3 75 2 78 -33 126 -20 26 -56 83 -79 125 -80 142 -130 219 -177
271 -50 55 -134 110 -170 110 -22 0 -23 -4 -23 -73z"/>
<path d="M25477 21145 c-79 -54 -238 -264 -286 -379 -23 -54 -26 -73 -25 -176
2 -197 68 -380 180 -499 l59 -62 80 -11 c132 -16 239 4 310 57 77 59 234 337
304 538 30 84 71 263 71 305 0 16 -10 23 -52 32 -61 13 -258 78 -273 90 -11 9
-311 130 -323 130 -4 0 -24 -11 -45 -25z"/>
<path d="M26300 21086 c0 -55 0 -55 58 -102 31 -26 89 -62 128 -80 88 -41 294
-118 383 -143 36 -11 86 -27 111 -36 121 -45 827 -244 925 -261 17 -3 57 -13
90 -24 33 -10 150 -46 260 -78 110 -33 301 -92 424 -131 123 -39 237 -74 253
-76 16 -3 55 -14 86 -25 31 -10 138 -39 237 -65 207 -52 681 -179 770 -205 33
-9 186 -48 340 -85 154 -37 339 -82 411 -100 l132 -32 46 28 c25 16 52 29 58
30 44 2 -471 136 -822 214 -91 20 -212 47 -270 60 -58 14 -211 47 -340 74
-376 80 -556 127 -1305 343 -154 44 -284 81 -290 82 -39 6 -780 254 -1000 334
-389 142 -417 154 -540 241 -93 66 -132 91 -140 91 -3 0 -5 -25 -5 -54z"/>
<path d="M26277 20773 c-45 -220 -177 -520 -312 -709 l-15 -21 147 5 c219 7
342 -14 748 -129 172 -48 408 -106 540 -133 115 -24 351 -88 640 -176 72 -21
303 -89 515 -150 212 -61 430 -124 485 -141 55 -16 163 -41 240 -55 77 -14
258 -56 402 -94 145 -38 275 -72 290 -75 26 -4 273 -72 421 -115 46 -13 64
-15 67 -7 2 7 15 54 29 105 42 151 115 277 231 400 l63 67 -347 83 c-190 46
-371 90 -401 97 -30 7 -170 45 -310 84 -140 39 -354 96 -475 126 -239 60 -270
69 -695 204 -319 100 -383 119 -537 160 -59 16 -160 43 -223 60 -63 18 -198
55 -300 82 -556 150 -1030 315 -1152 400 -14 11 -28 19 -30 19 -2 0 -12 -39
-21 -87z"/>
<path d="M24922 20789 c-11 -25 -23 -59 -26 -76 -7 -29 -4 -34 34 -59 22 -15
43 -25 46 -22 6 6 -22 187 -30 195 -3 3 -14 -14 -24 -38z"/>
<path d="M24863 20471 c7 -84 7 -85 92 -186 73 -88 138 -210 158 -294 10 -46
17 -56 44 -67 35 -15 221 -40 230 -31 3 3 -10 12 -29 20 -72 30 -162 134 -227
264 -30 60 -73 199 -86 274 -5 34 -8 37 -48 42 -24 3 -65 15 -92 27 l-48 21 6
-70z"/>
<path d="M27185 19653 c-120 -11 -326 -56 -452 -98 -189 -63 -336 -149 -462
-269 -89 -87 -150 -170 -196 -269 -49 -107 -64 -180 -80 -409 -8 -110 -22
-228 -31 -261 -40 -158 -137 -292 -247 -342 -185 -85 -403 -10 -767 266 -240
181 -310 228 -415 279 -121 58 -185 75 -290 73 -111 -1 -204 -33 -459 -158
-635 -310 -1152 -464 -1834 -544 -90 -10 -166 -21 -169 -24 -3 -3 20 -48 50
-99 252 -428 544 -592 974 -549 502 51 1021 268 1448 605 61 48 148 106 194
129 l85 42 130 0 c121 -1 138 -3 226 -33 140 -49 307 -133 565 -288 247 -147
379 -215 517 -263 244 -85 448 -81 636 11 76 38 181 131 219 195 52 88 56 118
57 403 2 257 2 267 27 330 88 229 348 382 824 486 94 20 202 43 240 51 133 26
188 70 171 136 -14 56 -289 358 -409 448 -106 80 -157 105 -279 134 -98 24
-165 28 -273 18z"/>
<path d="M31130 19601 c-19 -5 18 -18 150 -53 96 -25 176 -45 178 -43 8 7 -95
69 -144 86 -53 19 -136 23 -184 10z"/>
<path d="M31660 19479 c13 -19 24 -35 25 -36 2 -5 337 -94 341 -90 3 3 -103
46 -375 155 -10 4 -6 -7 9 -29z"/>
<path d="M30858 19447 c-75 -64 -163 -176 -206 -263 -28 -55 -82 -221 -82
-250 0 -7 14 -15 31 -19 17 -4 122 -35 233 -70 265 -82 433 -145 679 -254 157
-69 231 -88 282 -71 54 18 69 56 62 160 -10 146 -74 327 -194 547 l-55 101
-57 15 c-199 53 -580 150 -602 154 -20 4 -40 -7 -91 -50z"/>
<path d="M28000 19443 c258 -294 271 -313 278 -404 7 -91 -45 -166 -143 -210
-48 -21 -172 -55 -235 -64 -312 -44 -626 -161 -760 -282 -114 -104 -131 -167
-128 -478 2 -185 0 -230 -15 -284 -27 -97 -74 -179 -147 -251 -179 -179 -438
-253 -714 -205 -215 38 -408 123 -786 350 -306 183 -477 259 -640 286 -54 9
-77 8 -130 -5 -72 -18 -123 -51 -320 -200 -335 -255 -749 -445 -1161 -531
-435 -91 -721 -60 -968 106 -162 108 -340 319 -456 542 l-40 77 -240 0 c-132
0 -278 3 -325 6 l-85 6 65 -48 c404 -300 937 -651 1390 -916 2581 -1510 5529
-2213 8510 -2028 2433 151 4783 875 6834 2104 292 175 340 206 330 216 -15 13
-638 437 -742 504 -323 210 -582 295 -810 266 -52 -6 -101 -14 -108 -17 -9 -3
-2 -25 22 -78 48 -103 65 -175 71 -291 8 -146 -24 -243 -104 -319 -71 -67
-210 -105 -314 -85 -245 47 -386 265 -324 504 39 150 137 240 338 311 l78 28
-58 59 c-99 101 -265 201 -455 274 -98 38 -443 144 -469 144 -20 0 -67 -96
-103 -210 -15 -47 -59 -175 -97 -285 -39 -110 -78 -231 -88 -270 l-18 -70 47
-52 c120 -131 101 -303 -33 -303 -46 0 -91 32 -122 85 -22 36 -28 62 -33 131
l-5 85 -96 64 c-74 49 -141 82 -289 140 -107 42 -196 74 -199 72 -3 -3 0 -21
6 -40 16 -46 16 -166 0 -200 -6 -14 -28 -34 -48 -43 -34 -16 -40 -16 -101 0
-36 9 -90 32 -120 50 -135 83 -158 246 -50 339 l39 33 -65 43 c-89 59 -295
155 -422 198 -82 27 -123 35 -186 36 l-81 2 4 -25 c2 -14 4 -68 5 -120 2 -149
-38 -205 -145 -204 -82 1 -143 39 -175 107 -42 90 -26 180 45 256 17 19 30 35
29 35 -2 1 -72 33 -157 70 -197 87 -318 126 -406 133 -116 9 -144 -16 -194
-168 -42 -127 -108 -216 -216 -294 -86 -61 -155 -93 -264 -123 -84 -22 -115
-26 -251 -25 -316 1 -578 73 -759 209 -117 88 -209 229 -246 378 -9 37 -17
113 -18 167 l-2 99 -65 20 c-110 32 -244 69 -326 89 -44 10 -205 53 -359 94
-315 84 -344 91 -470 112 -125 21 -204 43 -730 197 -587 172 -527 159 -475
101z"/>
<path d="M32820 19444 c-89 -24 -136 -52 -183 -109 -44 -54 -44 -55 -34 -100
9 -40 14 -46 46 -55 391 -105 1120 -267 1411 -313 14 -3 68 -12 120 -21 52 -9
244 -39 425 -66 182 -28 376 -59 433 -70 112 -22 142 -24 142 -12 0 5 -73 26
-162 47 -573 134 -1036 297 -1573 552 -110 53 -218 102 -240 110 -146 53 -278
66 -385 37z"/>
<path d="M32299 19275 c65 -21 111 -29 111 -17 0 5 -24 12 -52 16 -29 3 -64 8
-78 11 -14 3 -5 -2 19 -10z"/>
<path d="M31790 19276 c0 -2 25 -57 56 -122 94 -200 144 -381 144 -522 0 -149
-87 -244 -225 -245 -84 -1 -152 18 -280 75 -151 68 -283 121 -463 183 -167 59
-442 145 -462 145 -19 0 -4 -146 24 -235 30 -95 72 -159 150 -232 74 -69 149
-111 276 -152 145 -47 255 -64 430 -65 133 -1 166 2 233 22 111 32 192 76 259
140 73 69 89 96 128 207 18 48 39 100 48 114 50 81 115 121 210 129 l64 5 -29
18 c-16 10 -40 38 -53 61 -35 61 -34 177 2 266 18 43 23 65 15 67 -7 3 -73 20
-147 39 -124 32 -338 91 -367 101 -7 2 -13 3 -13 1z"/>
<path d="M32432 19042 c-18 -40 -26 -74 -27 -114 0 -64 16 -92 39 -68 23 25
47 100 53 165 5 58 4 62 -17 68 -19 5 -25 -2 -48 -51z"/>
<path d="M32621 18976 c-12 -76 -64 -200 -94 -225 -9 -7 -33 -19 -53 -26 l-37
-12 54 -13 c30 -7 86 -24 124 -38 94 -33 404 -170 435 -193 22 -15 36 -16 105
-8 167 19 305 -16 577 -144 132 -62 241 -130 312 -193 26 -24 58 -44 70 -44
70 0 519 -180 624 -250 52 -35 78 -47 81 -38 2 7 31 90 64 183 32 94 77 229
99 300 21 72 55 165 75 208 20 42 34 79 31 82 -11 11 -330 65 -778 130 -385
56 -979 178 -1458 301 -118 30 -215 54 -217 54 -1 0 -8 -33 -14 -74z"/>
<path d="M35480 18800 c-17 -11 -9 -14 53 -25 28 -4 37 -3 37 8 0 25 -59 37
-90 17z"/>
<path d="M33001 18255 c-39 -44 -41 -86 -6 -120 28 -29 38 -31 55 -10 15 17 9
140 -7 156 -7 7 -21 -3 -42 -26z"/>
<path d="M33990 17933 c-32 -22 -40 -33 -40 -59 0 -42 56 -92 121 -107 l26 -7
-8 48 c-10 50 -48 133 -64 139 -6 2 -22 -5 -35 -14z"/>
<path d="M36182 17901 c-116 -44 -169 -75 -206 -124 -52 -69 -70 -173 -44
-259 17 -56 87 -131 147 -157 140 -60 288 -7 330 118 16 49 14 171 -5 245 -20
78 -84 210 -104 213 -8 1 -61 -15 -118 -36z"/>
</g>
</svg>
